STARTFONT 2.1
COMMENT $Id$
COMMENT 
COMMENT Copyright (C) Centre d'Etudes de la Navigation Aérienne
COMMENT 
COMMENT This software is free software; you can redistribute it and/or
COMMENT modify it under the terms of the GNU Lesser General Public License
COMMENT as published by the Free Software Foundation: either version 2
COMMENT of the License, or (at your option) any later version.
COMMENT 
COMMENT This software is distributed in the hope that it will be useful,
COMMENT but WITHOUT ANY WARRANTY; without even the implied warranty of
COMMENT MERCHANTABILITY or FITNESS FOR A PARTICULAR PURPOSE.  See the
COMMENT GNU Lesser General Public License for more details.
COMMENT 
COMMENT You should have received a copy of the GNU Lesser General Public License
COMMENT along with this software; if not, write to the Free Software
COMMENT Foundation, Inc., 59 Temple Place - Suite 330, Boston, MA  02111-1307, USA.
COMMENT Please refer to http://www.gnu.org/copyleft/gpl.html
COMMENT
COMMENT to contact us:
COMMENT    email to:  pii-contact@cena.dgac.fr
COMMENT or write to: CENA, 7 avenue Edouard Belin, 31400 Toulouse, France 
COMMENT 
FONT -cena-orly clock-bold-r-normal-sans-24-240-75-75-p-160-fontspecific-1
SIZE 24 75 75
FONTBOUNDINGBOX 25 25 -1 -6
STARTPROPERTIES 15
FOUNDRY "CENA"
FAMILY_NAME "Orly Clock"
COPYRIGHT "Copyright 1999 CENA/J.L.Vinot"
PIXEL_SIZE 24
POINT_SIZE 240
RESOLUTION_X 75
RESOLUTION_Y 75
FONT_ASCENT 25
FONT_DESCENT 6
AVERAGE_WIDTH 160
SPACING "p"
WEIGHT_NAME "bold"
SLANT "r"
SETWIDTH_NAME "normal"
_XMBDFED_INFO "Edited with xmbdfed 3.3."
ENDPROPERTIES
CHARS 48
STARTCHAR char32
ENCODING 32
SWIDTH 240 0
DWIDTH 6 0
BBX 0 0 0 0
BITMAP
ENDCHAR
STARTCHAR char43
ENCODING 43
SWIDTH 520 0
DWIDTH 13 0
BBX 11 13 1 0
BITMAP
0E00
0E00
0E00
0E00
0E00
FFE0
FFE0
FFE0
0E00
0E00
0E00
0E00
0E00
ENDCHAR
STARTCHAR char45
ENCODING 45
SWIDTH 480 0
DWIDTH 12 0
BBX 10 3 1 5
BITMAP
FFC0
FFC0
FFC0
ENDCHAR
STARTCHAR char46
ENCODING 46
SWIDTH 280 0
DWIDTH 7 0
BBX 6 5 0 0
BITMAP
38
7C
7C
7C
38
ENDCHAR
STARTCHAR char48
ENCODING 48
SWIDTH 680 0
DWIDTH 17 0
BBX 15 19 1 0
BITMAP
07C0
1FF0
3FF8
7C7C
783C
F01E
F01E
F01E
F01E
F01E
F01E
F01E
F01E
F01E
783C
7C7C
3FF8
1FF0
07C0
ENDCHAR
STARTCHAR char49
ENCODING 49
SWIDTH 640 0
DWIDTH 16 0
BBX 10 19 2 0
BITMAP
03C0
03C0
07C0
0FC0
3FC0
FFC0
FBC0
E3C0
03C0
03C0
03C0
03C0
03C0
03C0
03C0
03C0
03C0
03C0
03C0
ENDCHAR
STARTCHAR char50
ENCODING 50
SWIDTH 640 0
DWIDTH 16 0
BBX 14 19 1 0
BITMAP
0FC0
3FF0
7FF8
787C
F03C
F03C
F03C
003C
0078
00F8
01F0
03E0
07C0
0F80
1F00
3E00
7FFC
FFFC
FFFC
ENDCHAR
STARTCHAR char51
ENCODING 51
SWIDTH 680 0
DWIDTH 17 0
BBX 15 19 1 0
BITMAP
0FC0
3FF0
7FF8
787C
F03C
F03C
003C
00F8
03F0
03F8
003C
001E
F01E
F01E
F01E
783C
7FFC
3FF8
0FE0
ENDCHAR
STARTCHAR char52
ENCODING 52
SWIDTH 680 0
DWIDTH 17 0
BBX 15 19 1 0
BITMAP
0038
0078
00F8
01F8
03F8
07F8
0F78
1E78
3C78
7878
F078
FFFE
FFFE
FFFE
0078
0078
0078
0078
0078
ENDCHAR
STARTCHAR char53
ENCODING 53
SWIDTH 680 0
DWIDTH 17 0
BBX 14 19 2 0
BITMAP
1FF8
1FF8
1FF8
3800
3800
3800
7FC0
7FF0
7FF8
7078
003C
003C
003C
803C
C03C
F078
FFF8
7FF0
1FC0
ENDCHAR
STARTCHAR char54
ENCODING 54
SWIDTH 680 0
DWIDTH 17 0
BBX 15 19 1 0
BITMAP
01F0
03E0
07C0
0F80
1F00
3E00
3FE0
7FF8
7FFC
F83C
F01E
F01E
F01E
F01E
F01E
783C
7FFC
3FF8
0FE0
ENDCHAR
STARTCHAR char55
ENCODING 55
SWIDTH 600 0
DWIDTH 15 0
BBX 14 19 1 0
BITMAP
FFFC
FFFC
FFF8
0078
00F0
01E0
03C0
03C0
0780
0780
0F00
0F00
1E00
1E00
1E00
3C00
3C00
3C00
3C00
ENDCHAR
STARTCHAR char56
ENCODING 56
SWIDTH 680 0
DWIDTH 17 0
BBX 15 19 1 0
BITMAP
0FE0
3FF8
3FF8
7C3C
783C
783C
7C78
3FF0
1FE0
3FF8
78FC
F03E
F01E
F01E
F01E
783C
7FFC
3FF8
0FE0
ENDCHAR
STARTCHAR char57
ENCODING 57
SWIDTH 680 0
DWIDTH 17 0
BBX 15 19 1 0
BITMAP
0FE0
3FF8
7FFC
783C
F01E
F01E
F01E
F01E
F01E
783E
7FFC
3FFC
0FF8
00F8
01F0
03E0
07C0
0F80
1F00
ENDCHAR
STARTCHAR char58
ENCODING 58
SWIDTH 440 0
DWIDTH 11 0
BBX 5 14 3 0
BITMAP
70
F8
F8
F8
70
00
00
00
00
70
F8
F8
F8
70
ENDCHAR
STARTCHAR char60
ENCODING 60
SWIDTH 400 0
DWIDTH 10 0
BBX 8 15 1 0
BITMAP
01
03
07
0F
1F
3F
7F
FF
7F
3F
1F
0F
07
03
01
ENDCHAR
STARTCHAR char62
ENCODING 62
SWIDTH 400 0
DWIDTH 10 0
BBX 8 15 1 0
BITMAP
80
C0
E0
F0
F8
FC
FE
FF
FE
FC
F8
F0
E0
C0
80
ENDCHAR
STARTCHAR char65
ENCODING 65
SWIDTH 680 0
DWIDTH 17 0
BBX 17 19 0 0
BITMAP
03E000
03E000
03F000
07F000
07F000
07F800
0F7800
0F3C00
0F3C00
1E3C00
1E1E00
1E1E00
3FFE00
3FFF00
3FFF00
780F00
780780
780780
F00780
ENDCHAR
STARTCHAR char66
ENCODING 66
SWIDTH 680 0
DWIDTH 17 0
BBX 14 19 2 0
BITMAP
FF80
FFE0
FFF0
F0F0
F078
F078
F078
F0F0
FFE0
FFF0
FFF8
F078
F03C
F03C
F03C
F078
FFF8
FFF0
FFC0
ENDCHAR
STARTCHAR char67
ENCODING 67
SWIDTH 680 0
DWIDTH 17 0
BBX 15 19 1 0
BITMAP
03F0
0FFC
1FFE
3E1E
7806
7802
F000
F000
F000
F000
F000
F000
F000
F002
7806
7C1E
3FFE
1FFC
07F0
ENDCHAR
STARTCHAR char68
ENCODING 68
SWIDTH 680 0
DWIDTH 17 0
BBX 15 19 2 0
BITMAP
FF80
FFE0
FFF0
F078
F03C
F03C
F01E
F01E
F01E
F01E
F01E
F01E
F01E
F03C
F03C
F078
FFF0
FFE0
FF80
ENDCHAR
STARTCHAR char69
ENCODING 69
SWIDTH 600 0
DWIDTH 15 0
BBX 12 19 2 0
BITMAP
FFF0
FFF0
FFF0
F000
F000
F000
F000
F000
FFE0
FFE0
FFE0
F000
F000
F000
F000
F000
FFF0
FFF0
FFF0
ENDCHAR
STARTCHAR char70
ENCODING 70
SWIDTH 600 0
DWIDTH 15 0
BBX 12 19 2 0
BITMAP
FFF0
FFF0
FFF0
F000
F000
F000
F000
F000
FFE0
FFE0
FFE0
F000
F000
F000
F000
F000
F000
F000
F000
ENDCHAR
STARTCHAR char71
ENCODING 71
SWIDTH 760 0
DWIDTH 19 0
BBX 17 19 1 0
BITMAP
03F800
0FFE00
1FFF00
3E0F00
780300
780100
F00000
F00000
F0FF80
F0FF80
F0FF80
F00780
F00780
F00780
780780
7C0F80
3FFF00
1FFE00
07F800
ENDCHAR
STARTCHAR char72
ENCODING 72
SWIDTH 800 0
DWIDTH 20 0
BBX 16 19 2 0
BITMAP
F00F
F00F
F00F
F00F
F00F
F00F
F00F
F00F
FFFF
FFFF
FFFF
F00F
F00F
F00F
F00F
F00F
F00F
F00F
F00F
ENDCHAR
STARTCHAR char73
ENCODING 73
SWIDTH 360 0
DWIDTH 9 0
BBX 4 19 3 0
BITMAP
F0
F0
F0
F0
F0
F0
F0
F0
F0
F0
F0
F0
F0
F0
F0
F0
F0
F0
F0
ENDCHAR
STARTCHAR char74
ENCODING 74
SWIDTH 520 0
DWIDTH 13 0
BBX 12 19 0 0
BITMAP
00F0
00F0
00F0
00F0
00F0
00F0
00F0
00F0
00F0
00F0
00F0
00F0
00F0
00F0
20F0
71E0
FFE0
7FC0
1F00
ENDCHAR
STARTCHAR char75
ENCODING 75
SWIDTH 720 0
DWIDTH 18 0
BBX 16 19 2 0
BITMAP
F03E
F07C
F0F8
F1F0
F3E0
F7C0
FF80
FF00
FE00
FE00
FF00
FF80
F7C0
F3E0
F1F0
F0F8
F07C
F03E
F01F
ENDCHAR
STARTCHAR char76
ENCODING 76
SWIDTH 560 0
DWIDTH 14 0
BBX 12 19 2 0
BITMAP
F000
F000
F000
F000
F000
F000
F000
F000
F000
F000
F000
F000
F000
F000
F000
F000
FFF0
FFF0
FFF0
ENDCHAR
STARTCHAR char77
ENCODING 77
SWIDTH 960 0
DWIDTH 24 0
BBX 21 19 2 0
BITMAP
FC01F8
FC01F8
FC01F8
FE03F8
FE03F8
FE03F8
FF07F8
F70778
F70778
F78F78
F38E78
F38E78
F3DE78
F1DC78
F1DC78
F1FC78
F0F878
F0F878
F0F878
ENDCHAR
STARTCHAR char78
ENCODING 78
SWIDTH 840 0
DWIDTH 21 0
BBX 17 19 2 0
BITMAP
F00780
F80780
FC0780
FC0780
FE0780
FF0780
FF8780
F78780
F3C780
F3E780
F1F780
F0F780
F07F80
F07F80
F03F80
F01F80
F00F80
F00F80
F00780
ENDCHAR
STARTCHAR char79
ENCODING 79
SWIDTH 800 0
DWIDTH 20 0
BBX 19 19 1 0
BITMAP
03F800
0FFE00
1FFF00
3E0F80
7803C0
7803C0
F001E0
F001E0
F001E0
F001E0
F001E0
F001E0
F001E0
7803C0
7803C0
3E0F80
1FFF00
0FFE00
03F800
ENDCHAR
STARTCHAR char80
ENCODING 80
SWIDTH 640 0
DWIDTH 16 0
BBX 14 19 2 0
BITMAP
FFC0
FFF0
FFF8
F078
F03C
F03C
F03C
F03C
F078
FFF8
FFF0
FFC0
F000
F000
F000
F000
F000
F000
F000
ENDCHAR
STARTCHAR char81
ENCODING 81
SWIDTH 840 0
DWIDTH 21 0
BBX 20 19 1 0
BITMAP
03F800
0FFE00
1FFF00
3E0F80
7803C0
7803C0
F001E0
F001E0
F001E0
F001E0
F1F1E0
F0F9E0
F07DE0
783FC0
781FC0
3E0F80
1FFFC0
0FFFE0
03F9F0
ENDCHAR
STARTCHAR char82
ENCODING 82
SWIDTH 720 0
DWIDTH 18 0
BBX 16 19 2 0
BITMAP
FFC0
FFF0
FFF8
F078
F03C
F03C
F03C
F03C
F078
FFF8
FFF0
FFC0
F7C0
F3E0
F1F0
F0F8
F07C
F03E
F01F
ENDCHAR
STARTCHAR char83
ENCODING 83
SWIDTH 640 0
DWIDTH 16 0
BBX 14 19 1 0
BITMAP
07C0
1FF0
3FF8
3C70
7820
7800
7C00
7F00
3FC0
0FF0
03F8
00FC
007C
203C
703C
F878
FFF8
7FF0
1FC0
ENDCHAR
STARTCHAR char84
ENCODING 84
SWIDTH 600 0
DWIDTH 15 0
BBX 14 19 1 0
BITMAP
FFFC
FFFC
FFFC
0780
0780
0780
0780
0780
0780
0780
0780
0780
0780
0780
0780
0780
0780
0780
0780
ENDCHAR
STARTCHAR char85
ENCODING 85
SWIDTH 760 0
DWIDTH 19 0
BBX 16 19 2 0
BITMAP
F00F
F00F
F00F
F00F
F00F
F00F
F00F
F00F
F00F
F00F
F00F
F00F
F00F
F00F
F81F
7C3E
7FFE
3FFC
0FF0
ENDCHAR
STARTCHAR char86
ENCODING 86
SWIDTH 720 0
DWIDTH 18 0
BBX 19 19 -1 0
BITMAP
F803E0
7803C0
7C07C0
3C0780
3C0780
1E0F00
1E0F00
1F1F00
0F1E00
0F1E00
07BC00
07BC00
03F800
03F800
03F800
01F000
01F000
00E000
00E000
ENDCHAR
STARTCHAR char87
ENCODING 87
SWIDTH 960 0
DWIDTH 24 0
BBX 25 19 -1 0
BITMAP
F81C0F80
781C0F00
781C0F00
7C3E1F00
3C3E1E00
3C3E1E00
3E7F3E00
1E7F3C00
1E773C00
1EF7BC00
0FE3F800
0FE3F800
0FE3F800
07C1F000
07C1F000
07C1F000
0380E000
0380E000
0380E000
ENDCHAR
STARTCHAR char88
ENCODING 88
SWIDTH 720 0
DWIDTH 18 0
BBX 19 19 -1 0
BITMAP
7C07C0
3C0780
1E0F00
1F1F00
0F1E00
07BC00
07FC00
03F800
01F000
03F800
03F800
07FC00
0FBE00
0F1E00
1F1F00
3E0F80
3C0780
7C07C0
F803E0
ENDCHAR
STARTCHAR char89
ENCODING 89
SWIDTH 680 0
DWIDTH 17 0
BBX 18 19 -1 0
BITMAP
F807C0
780F80
3C1F00
3E1F00
1E3E00
0F7C00
0FFC00
07F800
03F000
03F000
01E000
01E000
01E000
01E000
01E000
01E000
01E000
01E000
01E000
ENDCHAR
STARTCHAR char90
ENCODING 90
SWIDTH 680 0
DWIDTH 17 0
BBX 17 19 0 0
BITMAP
3FFF00
3FFF00
3FFE00
003C00
007C00
007800
00F000
01F000
01E000
03C000
07C000
078000
0F0000
1F0000
1E0000
3E0000
7FFF80
7FFF80
FFFF80
ENDCHAR
STARTCHAR char92
ENCODING 92
SWIDTH 1080 0
DWIDTH 27 0
BBX 0 0 0 0
BITMAP
ENDCHAR
STARTCHAR char100
ENCODING 100
SWIDTH 600 0
DWIDTH 15 0
BBX 13 19 1 0
BITMAP
0078
0078
0078
0078
0078
0F78
3FF8
7FF8
78F8
F078
F078
F078
F078
F078
F078
78F8
7FF8
3FF8
0F78
ENDCHAR
STARTCHAR char102
ENCODING 102
SWIDTH 400 0
DWIDTH 10 0
BBX 9 19 1 0
BITMAP
1F80
3F80
3C00
3C00
3C00
FF00
FF00
3C00
3C00
3C00
3C00
3C00
3C00
3C00
3C00
3C00
3C00
3C00
3C00
ENDCHAR
STARTCHAR char103
ENCODING 103
SWIDTH 600 0
DWIDTH 15 0
BBX 13 20 1 -6
BITMAP
0F78
3FF8
7FF8
78F8
F078
F078
F078
F078
F078
F078
78F8
7FF8
3FF8
0F78
0078
0078
70F0
7FF0
3FE0
0F80
ENDCHAR
STARTCHAR char116
ENCODING 116
SWIDTH 440 0
DWIDTH 11 0
BBX 9 19 1 0
BITMAP
0400
0C00
3C00
3C00
3C00
FF80
FF80
3C00
3C00
3C00
3C00
3C00
3C00
3C00
3C00
3C00
3C00
3F80
1F80
ENDCHAR
ENDFONT
